HIERARCHY
ROOT Hips
{
  OFFSET 0.0273292 -0.436096 0.279869
  CHANNELS 6 Xposition Yposition Zposition Zrotation Xrotation Yrotation
  JOINT LHipJoint
  {
    OFFSET 0 0 0
    CHANNELS 6 Xposition Yposition Zposition Zrotation Xrotation Yrotation
    JOINT LeftUpLeg
    {
      OFFSET 1.36306 -1.79463 0
      CHANNELS 6 Xposition Yposition Zposition Zrotation Xrotation Yrotation
      JOINT LeftLeg
      {
        OFFSET 2.44807 -6.72613 0.000295034
        CHANNELS 6 Xposition Yposition Zposition Zrotation Xrotation Yrotation
        JOINT LeftFoot
        {
          OFFSET 2.5622 -7.03959 3.59965e-05
          CHANNELS 6 Xposition Yposition Zposition Zrotation Xrotation Yrotation
          JOINT LeftToeBase
          {
            OFFSET 0.15764 -0.43311 2.32255
            CHANNELS 6 Xposition Yposition Zposition Zrotation Xrotation Yrotation
            End Site
            {
              OFFSET 0 0 0
            }
          }
        }
      }
    }
  }
  JOINT RHipJoint
  {
    OFFSET 0 0 0
    CHANNELS 6 Xposition Yposition Zposition Zrotation Xrotation Yrotation
    JOINT RightUpLeg
    {
      OFFSET -1.30552 -1.79463 0
      CHANNELS 6 Xposition Yposition Zposition Zrotation Xrotation Yrotation
      JOINT RightLeg
      {
        OFFSET -2.54234 -6.98562 -0.000396375
        CHANNELS 6 Xposition Yposition Zposition Zrotation Xrotation Yrotation
        JOINT RightFoot
        {
          OFFSET -2.56826 -7.05623 -4.47982e-05
          CHANNELS 6 Xposition Yposition Zposition Zrotation Xrotation Yrotation
          JOINT RightToeBase
          {
            OFFSET -0.16473 -0.45259 2.36315
            CHANNELS 6 Xposition Yposition Zposition Zrotation Xrotation Yrotation
            End Site
            {
              OFFSET 0 0 0
            }
          }
        }
      }
    }
  }
  JOINT LowerBack
  {
    OFFSET 0 0 0
    CHANNELS 6 Xposition Yposition Zposition Zrotation Xrotation Yrotation
    JOINT Spine
    {
      OFFSET 0.0282699 2.03559 0
      CHANNELS 6 Xposition Yposition Zposition Zrotation Xrotation Yrotation
      JOINT Spine1
      {
        OFFSET 0.05672 2.04885 -0.04275
        CHANNELS 6 Xposition Yposition Zposition Zrotation Xrotation Yrotation
        JOINT Neck
        {
          OFFSET 0 0 0
          CHANNELS 6 Xposition Yposition Zposition Zrotation Xrotation Yrotation
          JOINT Neck1
          {
            OFFSET -0.05417 1.74624 0.17202
            CHANNELS 6 Xposition Yposition Zposition Zrotation Xrotation Yrotation
            JOINT Head
            {
              OFFSET 0.10407 1.76136 -0.12397
              CHANNELS 6 Xposition Yposition Zposition Zrotation Xrotation Yrotation
              End Site
              {
                OFFSET 0 0 0
              }
            }
          }
        }
        JOINT LeftShoulder
        {
          OFFSET 0 0 0
          CHANNELS 6 Xposition Yposition Zposition Zrotation Xrotation Yrotation
          JOINT LeftArm
          {
            OFFSET 3.36241 1.20089 -0.311211
            CHANNELS 6 Xposition Yposition Zposition Zrotation Xrotation Yrotation
            JOINT LeftForeArm
            {
              OFFSET 4.983 0.000197398 0.000166057
              CHANNELS 6 Xposition Yposition Zposition Zrotation Xrotation Yrotation
              JOINT LeftHand
              {
                OFFSET 3.48356 0 1.87849e-05
                CHANNELS 6 Xposition Yposition Zposition Zrotation Xrotation Yrotation
                JOINT LeftFingerBase
                {
                  OFFSET 0 0 0
                  CHANNELS 6 Xposition Yposition Zposition Zrotation Xrotation Yrotation
                  JOINT LeftHandIndex1
                  {
                    OFFSET 0.71526 0 0
                    CHANNELS 6 Xposition Yposition Zposition Zrotation Xrotation Yrotation
                    End Site
                    {
                      OFFSET 0 0 0
                    }
                  }
                }
                JOINT LThumb
                {
                  OFFSET 0 0 0
                  CHANNELS 6 Xposition Yposition Zposition Zrotation Xrotation Yrotation
                  End Site
                  {
                    OFFSET 0 0 0
                  }
                }
              }
            }
          }
        }
        JOINT RightShoulder
        {
          OFFSET 0 0 0
          CHANNELS 6 Xposition Yposition Zposition Zrotation Xrotation Yrotation
          JOINT RightArm
          {
            OFFSET -3.1366 1.37405 -0.404651
            CHANNELS 6 Xposition Yposition Zposition Zrotation Xrotation Yrotation
            JOINT RightForeArm
            {
              OFFSET -5.2419 -5.8808e-05 -0.000165864
              CHANNELS 6 Xposition Yposition Zposition Zrotation Xrotation Yrotation
              JOINT RightHand
              {
                OFFSET -3.44417 0 -2.00002e-05
                CHANNELS 6 Xposition Yposition Zposition Zrotation Xrotation Yrotation
                JOINT RightFingerBase
                {
                  OFFSET 0 0 0
                  CHANNELS 6 Xposition Yposition Zposition Zrotation Xrotation Yrotation
                  JOINT RightHandIndex1
                  {
                    OFFSET -0.62253 0 0
                    CHANNELS 6 Xposition Yposition Zposition Zrotation Xrotation Yrotation
                    End Site
                    {
                      OFFSET 0 0 0
                    }
                  }
                }
                JOINT RThumb
                {
                  OFFSET 0 0 0
                  CHANNELS 6 Xposition Yposition Zposition Zrotation Xrotation Yrotation
                  End Site
                  {
                    OFFSET 0 0 0
                  }
                }
              }
            }
          }
        }
      }
    }
  }
}
MOTION
Frames:	7
Frame Time:	0.00833333
0.093434 1.61678 -0.0698077 -4.04401 -1.90177 -10.1529 0 0 0 9.44227e-16 -7.95139e-16 1.59028e-15 1.36306 -1.79463 9.54359e-08 -3.87666 -52.179 12.1823 2.44798 -6.72617 2.86942e-05 -48.8914 73.362 65.7695 2.56218 -7.0396 3.68637e-05 -7.99352 28.1044 4.66319 0.15764 -0.43311 2.32255 -3.53113e-31 -6.36111e-15 -3.18055e-15 0 0 0 9.44227e-16 -7.95139e-16 1.59028e-15 -1.30552 -1.79463 5.67482e-08 30.8459 -52.6309 16.4285 -2.54255 -6.98554 1.22482e-06 135.45 55.6463 -159.291 -2.5682 -7.05625 4.20108e-06 8.50731 16.4724 -7.49482 -0.16473 -0.45259 2.36315 -6.36111e-15 7.95139e-16 -0 0 0 0 9.44227e-16 -7.95139e-16 1.59028e-15 0.0282698 2.03559 7.33983e-08 -0.43423 29.121 11.5491 0.05672 2.04885 -0.04275 -3.47873e-16 -3.18055e-15 -2.48481e-17 0 0 0 -3.60297e-16 3.18055e-15 -4.96962e-17 -0.05417 1.74625 0.17202 0.940137 12.5587 5.68752 0.10407 1.76136 -0.12397 8.82781e-32 6.36111e-15 -7.95139e-16 0 0 0 -3.60297e-16 3.18055e-15 -4.96962e-17 3.36242 1.2009 -0.311211 -2.27114 -12.0885 -2.60732 4.98299 -0.000186552 0.000150213 8.12748 -4.5524 -24.8552 3.48356 -5.5688e-05 -2.19011e-05 -0.000911946 6.20422e-05 0.00035693 0 0 0 -1.59028e-15 1.59028e-15 -0 0.71526 0 -8.88178e-16 0 1.59028e-15 -0 0 0 0 -1.59028e-15 1.59028e-15 -0 0 0 0 -3.60297e-16 3.18055e-15 -4.96962e-17 -3.13661 1.37406 -0.404651 -6.35647 -4.74809 7.62695 -5.2419 -0.000405621 0.000229627 -1.78334 -0.413176 15.3977 -3.44417 4.84333e-06 -9.4782e-06 -7.83205e-05 -3.18055e-15 -0.00016107 0 0 0 -1.59028e-15 -3.18055e-15 3.18055e-15 -0.62253 0 0 0 0 -0 0 0 0 -1.59028e-15 -3.18055e-15 3.18055e-15 
0.0942797 1.6166 -0.0701575 -4.06515 -1.90375 -10.1241 0 0 0 -7.45443e-16 0 1.59028e-15 1.36306 -1.79463 9.54359e-08 -3.82171 -52.292 12.2353 2.44798 -6.72617 2.86942e-05 -49.1538 73.4231 66.2561 2.56218 -7.0396 3.68637e-05 -7.81371 28.2509 4.57448 0.15764 -0.43311 2.32255 -6.36111e-15 9.54166e-15 6.36111e-15 0 0 0 -7.45443e-16 0 1.59028e-15 -1.30552 -1.79463 5.67482e-08 30.9015 -52.7914 16.5279 -2.54255 -6.98554 1.22482e-06 135.61 55.43 -159.523 -2.5682 -7.05625 4.20108e-06 8.63437 16.5969 -7.58729 -0.16473 -0.45259 2.36315 1.27222e-14 7.95139e-16 -7.95139e-16 0 0 0 -7.45443e-16 0 1.59028e-15 0.0282698 2.03559 7.33983e-08 -0.450282 29.1712 11.5742 0.05672 2.04885 -0.04275 -2.60905e-16 0 -1.73937e-16 0 0 0 -1.11816e-16 0 1.73937e-16 -0.05417 1.74625 0.17202 0.97498 12.5979 5.70733 0.10407 1.76136 -0.12397 -7.95139e-16 0 -1.19271e-15 0 0 0 -1.11816e-16 0 1.73937e-16 3.36242 1.2009 -0.311211 -1.936 -12.0683 -2.72649 4.98299 -0.000186552 0.000150213 8.14395 -4.55646 -24.8689 3.48356 -5.5688e-05 -2.19011e-05 -0.0356021 -0.13709 -0.0176488 0 0 0 -7.95139e-16 -1.59028e-15 -3.18055e-15 0.71526 0 -8.88178e-16 -7.95139e-16 -1.59028e-15 -3.18055e-15 0 0 0 -7.95139e-16 -1.59028e-15 -3.18055e-15 0 0 0 -1.11816e-16 0 1.73937e-16 -3.13661 1.37406 -0.404651 -6.51622 -4.92761 7.56553 -5.2419 -0.000405621 0.000229627 -1.78945 -0.410672 15.5977 -3.44417 4.84333e-06 -9.4782e-06 -0.264639 0.620949 0.298951 0 0 0 1.59028e-15 3.18055e-15 -0 -0.62253 8.88178e-16 0 -1.59028e-15 3.18055e-15 3.18055e-15 0 0 0 1.59028e-15 3.18055e-15 -0 
0.0963238 1.6162 -0.0710404 -4.1157 -1.90818 -10.0498 0 0 0 -1.14301e-15 -3.97569e-16 -0 1.36306 -1.79463 9.54359e-08 -3.701 -52.5404 12.3531 2.44798 -6.72617 2.86942e-05 -49.7444 73.5527 67.3398 2.56218 -7.0396 3.68637e-05 -7.39095 28.5775 4.37146 0.15764 -0.43311 2.32255 -3.18055e-15 -3.18055e-15 -0 0 0 0 -1.14301e-15 -3.97569e-16 -0 -1.30552 -1.79463 5.67482e-08 31.0312 -53.1433 16.7558 -2.54255 -6.98554 1.22482e-06 135.951 54.9519 -160.023 -2.5682 -7.05625 4.20108e-06 8.93386 16.8852 -7.80375 -0.16473 -0.45259 2.36315 -3.18055e-15 0 -0 0 0 0 -1.14301e-15 -3.97569e-16 -0 0.0282698 2.03559 7.33983e-08 -0.485775 29.2817 11.6295 0.05672 2.04885 -0.04275 -4.96962e-17 3.18055e-15 -4.96962e-17 0 0 0 -1.49089e-16 3.18055e-15 4.96962e-17 -0.05417 1.74625 0.17202 1.05269 12.684 5.75094 0.10407 1.76136 -0.12397 -3.97569e-16 -9.54166e-15 -3.97569e-16 0 0 0 -1.49089e-16 3.18055e-15 4.96962e-17 3.36242 1.2009 -0.311211 -1.12181 -12.014 -3.02915 4.98299 -0.000186552 0.000150213 8.18015 -4.56537 -24.8991 3.48356 -5.5688e-05 -2.19011e-05 -0.120788 -0.464356 -0.0633985 0 0 0 7.95139e-16 0 -9.54166e-15 0.71526 8.88178e-16 0 -1.59028e-15 1.59028e-15 -6.36111e-15 0 0 0 7.95139e-16 0 -9.54166e-15 0 0 0 -1.49089e-16 3.18055e-15 4.96962e-17 -3.13661 1.37406 -0.404651 -6.90743 -5.36358 7.41277 -5.2419 -0.000405621 0.000229627 -1.80323 -0.404373 16.0805 -3.44417 4.84333e-06 -9.4782e-06 -0.931393 2.13602 1.03191 0 0 0 -1.59028e-15 -6.36111e-15 -3.18055e-15 -0.62253 -8.88178e-16 0 -1.76556e-31 -3.18055e-15 -3.18055e-15 0 0 0 -1.59028e-15 -6.36111e-15 -3.18055e-15 
0.0988268 1.61579 -0.0722063 -4.17633 -1.91277 -9.9479 0 0 0 -2.48481e-16 -3.97569e-16 -3.18055e-15 1.36306 -1.79463 9.54359e-08 -3.58212 -52.7887 12.4725 2.44798 -6.72617 2.86942e-05 -50.3538 73.6747 68.4425 2.56218 -7.0396 3.68637e-05 -6.90202 28.9145 4.14946 0.15764 -0.43311 2.32255 9.54166e-15 0 -3.18055e-15 0 0 0 -2.48481e-16 -3.97569e-16 -3.18055e-15 -1.30552 -1.79463 5.67482e-08 31.1764 -53.4922 17.0038 -2.54255 -6.98554 1.22482e-06 136.277 54.4711 -160.51 -2.5682 -7.05625 4.20108e-06 9.28222 17.2099 -8.05242 -0.16473 -0.45259 2.36315 -3.18055e-15 0 3.97569e-16 0 0 0 -2.48481e-16 -3.97569e-16 -3.18055e-15 0.0282698 2.03559 7.33983e-08 -0.521516 29.3922 11.685 0.05672 2.04885 -0.04275 -4.96962e-17 -6.36111e-15 9.93923e-17 0 0 0 4.96962e-17 -3.18055e-15 9.93923e-17 -0.05417 1.74625 0.17202 1.13314 12.7701 5.79459 0.10407 1.76136 -0.12397 -3.97569e-16 -3.18055e-15 1.19271e-15 0 0 0 4.96962e-17 -3.18055e-15 9.93923e-17 3.36242 1.2009 -0.311211 -0.115319 -11.9349 -3.43304 4.98299 -0.000186552 0.000150213 8.21635 -4.57427 -24.9294 3.48356 -5.5688e-05 -2.19011e-05 -0.228071 -0.855449 -0.124496 0 0 0 3.18055e-15 0 -0 0.71526 -8.88178e-16 -8.88178e-16 7.95139e-16 3.18055e-15 3.18055e-15 0 0 0 3.18055e-15 0 -0 0 0 0 4.96962e-17 -3.18055e-15 9.93923e-17 -3.13661 1.37406 -0.404651 -7.39771 -5.90204 7.21588 -5.2419 -0.000405621 0.000229627 -1.81788 -0.396107 16.6703 -3.44417 4.84333e-06 -9.4782e-06 -1.80314 4.02271 1.95388 0 0 0 1.59028e-15 3.18055e-15 6.36111e-15 -0.62253 8.88178e-16 -8.88178e-16 0 6.36111e-15 -0 0 0 0 1.59028e-15 3.18055e-15 6.36111e-15 
0.101049 1.61561 -0.073405 -4.22772 -1.91523 -9.83648 0 0 0 -1.78906e-15 0 -3.18055e-15 1.36306 -1.79463 9.54359e-08 -3.53581 -52.9015 12.5273 2.44798 -6.72617 2.86942e-05 -50.6405 73.7251 68.9536 2.56218 -7.0396 3.68637e-05 -6.52836 29.0929 4.00581 0.15764 -0.43311 2.32255 0 0 -0 0 0 0 -1.78906e-15 0 -3.18055e-15 -1.30552 -1.79463 5.67482e-08 31.2697 -53.645 17.1555 -2.54255 -6.98554 1.22482e-06 136.42 54.2517 -160.727 -2.5682 -7.05625 4.20108e-06 9.55213 17.4442 -8.24011 -0.16473 -0.45259 2.36315 3.18055e-15 0 1.19271e-15 0 0 0 -1.78906e-15 0 -3.18055e-15 0.0282698 2.03559 7.33983e-08 -0.537844 29.4424 11.7103 0.05672 2.04885 -0.04275 -1.98785e-16 0 -1.98785e-16 0 0 0 -2.48481e-16 0 -3.97569e-16 -0.05417 1.74625 0.17202 1.17645 12.8092 5.81445 0.10407 1.76136 -0.12397 1.59028e-15 1.59028e-14 -7.95139e-16 0 0 0 -2.48481e-16 0 -3.97569e-16 3.36242 1.2009 -0.311211 0.796382 -11.8408 -3.85594 4.98299 -0.000186552 0.000150213 8.2328 -4.57831 -24.9431 3.48356 -5.5688e-05 -2.19011e-05 -0.328426 -1.18408 -0.188541 0 0 0 0 1.59028e-15 -0 0.71526 0 8.88178e-16 -2.38542e-15 0 -0 0 0 0 0 1.59028e-15 -0 0 0 0 -2.48481e-16 0 -3.97569e-16 -3.13661 1.37406 -0.404651 -7.85192 -6.38871 7.02173 -5.2419 -0.000405621 0.000229627 -1.82648 -0.387712 17.191 -3.44417 4.84333e-06 -9.4782e-06 -2.63513 5.75885 2.81927 0 0 0 0 3.18055e-15 -0 -0.62253 -8.88178e-16 0 1.59028e-15 -3.18055e-15 -3.18055e-15 0 0 0 0 3.18055e-15 -0 
0.102801 1.61848 -0.0745467 -4.26306 -1.90792 -9.70977 0 0 0 -1.3418e-15 0 -3.18055e-15 1.36306 -1.79463 9.54359e-08 -3.61213 -52.8267 12.4706 2.44798 -6.72617 2.86942e-05 -50.2073 73.6676 68.5063 2.56218 -7.0396 3.68637e-05 -6.30842 29.1182 3.95029 0.15764 -0.43311 2.32255 3.18055e-15 -3.18055e-15 -3.18055e-15 0 0 0 -1.3418e-15 0 -3.18055e-15 -1.30552 -1.79463 5.67482e-08 31.2945 -53.6057 17.1988 -2.54255 -6.98554 1.22482e-06 136.303 54.4093 -160.608 -2.5682 -7.05625 4.20108e-06 9.70792 17.5488 -8.34001 -0.16473 -0.45259 2.36315 3.18055e-15 -7.95139e-16 -0 0 0 0 -1.3418e-15 0 -3.18055e-15 0.0282698 2.03559 7.33983e-08 -0.524742 29.3941 11.685 0.05672 2.04885 -0.04275 2.98177e-16 -3.18055e-15 -0 0 0 0 1.98785e-16 -3.18055e-15 -0 -0.05417 1.74625 0.17202 1.18825 12.8023 5.80436 0.10407 1.76136 -0.12397 0 0 -0 0 0 0 1.98785e-16 -3.18055e-15 -0 3.36242 1.2009 -0.311211 1.58101 -11.7204 -4.28662 4.98299 -0.000186552 0.000150213 8.2237 -4.5669 -24.871 3.48356 -5.5688e-05 -2.19011e-05 -0.419451 -1.43673 -0.253343 0 0 0 -1.59028e-15 0 6.36111e-15 0.71526 -8.88178e-16 8.88178e-16 -0 0 3.18055e-15 0 0 0 -1.59028e-15 0 6.36111e-15 0 0 0 1.98785e-16 -3.18055e-15 -0 -3.13661 1.37406 -0.404651 -8.24979 -6.79746 6.82874 -5.2419 -0.000405621 0.000229627 -1.82847 -0.379043 17.6064 -3.44417 4.84333e-06 -9.4782e-06 -3.37728 7.3245 3.61866 0 0 0 4.77083e-15 0 -6.36111e-15 -0.62253 0 0 0 0 -0 0 0 0 4.77083e-15 0 -6.36111e-15 
0.104474 1.62558 -0.0757725 -4.29244 -1.88942 -9.56168 0 0 0 1.44119e-15 -3.97569e-16 -0 1.36306 -1.79463 9.54359e-08 -3.76401 -52.6625 12.3426 2.44798 -6.72617 2.86942e-05 -49.2653 73.5445 67.5233 2.56218 -7.0396 3.68637e-05 -6.14595 29.1224 3.92144 0.15764 -0.43311 2.32255 3.18055e-15 6.36111e-15 -0 0 0 0 1.44119e-15 -3.97569e-16 -0 -1.30552 -1.79463 5.67482e-08 31.2965 -53.5304 17.2176 -2.54255 -6.98554 1.22482e-06 136.04 54.7555 -160.341 -2.5682 -7.05625 4.20108e-06 9.81687 17.5935 -8.40204 -0.16473 -0.45259 2.36315 -3.18055e-15 0 1.19271e-15 0 0 0 1.44119e-15 -3.97569e-16 -0 0.0282698 2.03559 7.33983e-08 -0.49496 29.2879 11.6272 0.05672 2.04885 -0.04275 -9.93923e-17 -6.36111e-15 -9.93923e-17 0 0 0 -4.96962e-17 -6.36111e-15 -0 -0.05417 1.74625 0.17202 1.19965 12.7872 5.78041 0.10407 1.76136 -0.12397 1.19271e-15 1.27222e-14 -7.95139e-16 0 0 0 -4.96962e-17 -6.36111e-15 -0 3.36242 1.2009 -0.311211 2.37832 -11.5729 -4.76509 4.98299 -0.000186552 0.000150213 8.20362 -4.53983 -24.6995 3.48356 -5.5688e-05 -2.19011e-05 -0.514948 -1.67403 -0.325151 0 0 0 7.95139e-16 1.59028e-15 -0 0.71526 -1.77636e-15 0 7.95139e-16 1.59028e-15 -0 0 0 0 7.95139e-16 1.59028e-15 -0 0 0 0 -4.96962e-17 -6.36111e-15 -0 -3.13661 1.37406 -0.404651 -8.65889 -7.2056 6.61646 -5.2419 -0.000405621 0.000229627 -1.82903 -0.369348 18.0067 -3.44417 4.84333e-06 -9.4782e-06 -4.1666 8.95592 4.46919 0 0 0 3.18055e-15 -3.18055e-15 -6.36111e-15 -0.62253 -8.88178e-16 -8.88178e-16 1.59028e-15 -3.18055e-15 -3.18055e-15 0 0 0 3.18055e-15 -3.18055e-15 -6.36111e-15 
